<svg width="375" height="156" fill="none" xmlns="http://www.w3.org/2000/svg"><path fill="#5CA5A5" d="M0 0h375v156H0z"/><mask id="a" style="mask-type:alpha" maskUnits="userSpaceOnUse" x="0" y="0" width="375" height="156"><path fill="#fff" d="M0 0h375v156H0z"/></mask><g mask="url(#a)"><path fill-rule="evenodd" clip-rule="evenodd" d="M-531.409 559.265c51.433 51.427 134.816 51.427 186.25 0L51.499 162.662c51.444-51.436 51.444-134.84 0-186.276-51.433-51.426-134.816-51.426-186.25 0L-531.409 372.99c-51.444 51.437-51.444 134.84 0 186.276Zm444.692-71.824c51.433 51.426 134.816 51.426 186.25 0L496.19 90.838c51.444-51.436 51.444-134.84 0-186.276-51.433-51.426-134.816-51.426-186.25 0L-86.717 301.165c-51.444 51.437-51.444 134.839 0 186.276Z" fill="#63BABA"/></g></svg>